<mxfile host="app.diagrams.net" modified="2022-02-20T12:16:38.968Z" agent="5.0 (Windows NT 10.0; Win64; x64) AppleWebKit/537.36 (KHTML, like Gecko) Chrome/98.0.4758.102 Safari/537.36" etag="bMOE3GmOMEKZ2JaJScoC" version="16.6.1" type="github">
  <diagram id="C5RBs43oDa-KdzZeNtuy" name="Page-1">
    <mxGraphModel dx="1071" dy="495" grid="1" gridSize="10" guides="1" tooltips="1" connect="1" arrows="1" fold="1" page="1" pageScale="1" pageWidth="827" pageHeight="1169" math="0" shadow="0">
      <root>
        <mxCell id="WIyWlLk6GJQsqaUBKTNV-0" />
        <mxCell id="WIyWlLk6GJQsqaUBKTNV-1" parent="WIyWlLk6GJQsqaUBKTNV-0" />
        <mxCell id="0GZozUYQBZrEff4Y3Oea-3" value="" style="edgeStyle=orthogonalEdgeStyle;rounded=0;orthogonalLoop=1;jettySize=auto;html=1;" parent="WIyWlLk6GJQsqaUBKTNV-1" source="WIyWlLk6GJQsqaUBKTNV-3" target="0GZozUYQBZrEff4Y3Oea-2" edge="1">
          <mxGeometry relative="1" as="geometry" />
        </mxCell>
        <mxCell id="0GZozUYQBZrEff4Y3Oea-5" value="" style="edgeStyle=orthogonalEdgeStyle;rounded=0;orthogonalLoop=1;jettySize=auto;html=1;startArrow=none;" parent="WIyWlLk6GJQsqaUBKTNV-1" source="WIyWlLk6GJQsqaUBKTNV-3" target="0GZozUYQBZrEff4Y3Oea-4" edge="1">
          <mxGeometry relative="1" as="geometry">
            <Array as="points">
              <mxPoint x="360" y="130" />
            </Array>
          </mxGeometry>
        </mxCell>
        <mxCell id="0GZozUYQBZrEff4Y3Oea-2" value="Escribir: &quot;Apellido de la persona&quot;" style="shape=parallelogram;perimeter=parallelogramPerimeter;whiteSpace=wrap;html=1;fixedSize=1;" parent="WIyWlLk6GJQsqaUBKTNV-1" vertex="1">
          <mxGeometry x="310" y="100" width="120" height="60" as="geometry" />
        </mxCell>
        <mxCell id="0GZozUYQBZrEff4Y3Oea-7" value="" style="edgeStyle=orthogonalEdgeStyle;rounded=0;orthogonalLoop=1;jettySize=auto;html=1;" parent="WIyWlLk6GJQsqaUBKTNV-1" source="0GZozUYQBZrEff4Y3Oea-4" target="0GZozUYQBZrEff4Y3Oea-6" edge="1">
          <mxGeometry relative="1" as="geometry" />
        </mxCell>
        <mxCell id="0GZozUYQBZrEff4Y3Oea-4" value="Poner el valor introducido en la variable apellido" style="shape=parallelogram;perimeter=parallelogramPerimeter;whiteSpace=wrap;html=1;fixedSize=1;" parent="WIyWlLk6GJQsqaUBKTNV-1" vertex="1">
          <mxGeometry x="495" y="100" width="120" height="60" as="geometry" />
        </mxCell>
        <mxCell id="0GZozUYQBZrEff4Y3Oea-9" value="" style="edgeStyle=orthogonalEdgeStyle;rounded=0;orthogonalLoop=1;jettySize=auto;html=1;" parent="WIyWlLk6GJQsqaUBKTNV-1" source="0GZozUYQBZrEff4Y3Oea-6" target="0GZozUYQBZrEff4Y3Oea-8" edge="1">
          <mxGeometry relative="1" as="geometry" />
        </mxCell>
        <mxCell id="0GZozUYQBZrEff4Y3Oea-6" value="Escribir &quot;Nombre de la persona" style="shape=parallelogram;perimeter=parallelogramPerimeter;whiteSpace=wrap;html=1;fixedSize=1;" parent="WIyWlLk6GJQsqaUBKTNV-1" vertex="1">
          <mxGeometry x="480" y="220" width="150" height="60" as="geometry" />
        </mxCell>
        <mxCell id="0GZozUYQBZrEff4Y3Oea-11" value="" style="edgeStyle=orthogonalEdgeStyle;rounded=0;orthogonalLoop=1;jettySize=auto;html=1;" parent="WIyWlLk6GJQsqaUBKTNV-1" source="0GZozUYQBZrEff4Y3Oea-8" target="0GZozUYQBZrEff4Y3Oea-10" edge="1">
          <mxGeometry relative="1" as="geometry" />
        </mxCell>
        <mxCell id="0GZozUYQBZrEff4Y3Oea-8" value="Poner el valor introducido en la variable nombre" style="shape=parallelogram;perimeter=parallelogramPerimeter;whiteSpace=wrap;html=1;fixedSize=1;" parent="WIyWlLk6GJQsqaUBKTNV-1" vertex="1">
          <mxGeometry x="320" y="220" width="120" height="60" as="geometry" />
        </mxCell>
        <mxCell id="0GZozUYQBZrEff4Y3Oea-14" value="" style="edgeStyle=orthogonalEdgeStyle;rounded=0;orthogonalLoop=1;jettySize=auto;html=1;" parent="WIyWlLk6GJQsqaUBKTNV-1" source="0GZozUYQBZrEff4Y3Oea-10" target="0GZozUYQBZrEff4Y3Oea-13" edge="1">
          <mxGeometry relative="1" as="geometry" />
        </mxCell>
        <mxCell id="0GZozUYQBZrEff4Y3Oea-10" value="Escribir &quot; Puesto 1. Agente 2. Empleado 3. Directivo&quot;" style="shape=parallelogram;perimeter=parallelogramPerimeter;whiteSpace=wrap;html=1;fixedSize=1;" parent="WIyWlLk6GJQsqaUBKTNV-1" vertex="1">
          <mxGeometry x="155" y="220" width="150" height="60" as="geometry" />
        </mxCell>
        <mxCell id="ArMYMaqeuRzm3sMhU9Xn-4" value="" style="edgeStyle=orthogonalEdgeStyle;rounded=0;orthogonalLoop=1;jettySize=auto;html=1;" parent="WIyWlLk6GJQsqaUBKTNV-1" source="0GZozUYQBZrEff4Y3Oea-12" target="ArMYMaqeuRzm3sMhU9Xn-3" edge="1">
          <mxGeometry relative="1" as="geometry" />
        </mxCell>
        <mxCell id="0GZozUYQBZrEff4Y3Oea-12" value="¿El valor se corresponde con alguna de las opciones?" style="rhombus;whiteSpace=wrap;html=1;" parent="WIyWlLk6GJQsqaUBKTNV-1" vertex="1">
          <mxGeometry x="175" y="457" width="110" height="100" as="geometry" />
        </mxCell>
        <mxCell id="0GZozUYQBZrEff4Y3Oea-15" value="" style="edgeStyle=orthogonalEdgeStyle;rounded=0;orthogonalLoop=1;jettySize=auto;html=1;" parent="WIyWlLk6GJQsqaUBKTNV-1" source="0GZozUYQBZrEff4Y3Oea-13" target="0GZozUYQBZrEff4Y3Oea-12" edge="1">
          <mxGeometry relative="1" as="geometry" />
        </mxCell>
        <mxCell id="0GZozUYQBZrEff4Y3Oea-13" value="Poner el valor introducido en la variable puesto" style="shape=parallelogram;perimeter=parallelogramPerimeter;whiteSpace=wrap;html=1;fixedSize=1;" parent="WIyWlLk6GJQsqaUBKTNV-1" vertex="1">
          <mxGeometry x="157.5" y="340" width="145" height="55" as="geometry" />
        </mxCell>
        <mxCell id="0GZozUYQBZrEff4Y3Oea-25" style="edgeStyle=orthogonalEdgeStyle;rounded=0;orthogonalLoop=1;jettySize=auto;html=1;exitX=0;exitY=0.5;exitDx=0;exitDy=0;entryX=0;entryY=0.5;entryDx=0;entryDy=0;" parent="WIyWlLk6GJQsqaUBKTNV-1" source="0GZozUYQBZrEff4Y3Oea-18" target="0GZozUYQBZrEff4Y3Oea-10" edge="1">
          <mxGeometry relative="1" as="geometry">
            <mxPoint x="70" y="260" as="targetPoint" />
            <Array as="points">
              <mxPoint x="80" y="507" />
              <mxPoint x="80" y="250" />
            </Array>
          </mxGeometry>
        </mxCell>
        <mxCell id="0GZozUYQBZrEff4Y3Oea-18" value="" style="ellipse;whiteSpace=wrap;html=1;aspect=fixed;" parent="WIyWlLk6GJQsqaUBKTNV-1" vertex="1">
          <mxGeometry x="158" y="498.5" width="17" height="17" as="geometry" />
        </mxCell>
        <mxCell id="0GZozUYQBZrEff4Y3Oea-22" value="Falso" style="text;html=1;strokeColor=none;fillColor=none;align=center;verticalAlign=middle;whiteSpace=wrap;rounded=0;" parent="WIyWlLk6GJQsqaUBKTNV-1" vertex="1">
          <mxGeometry x="110" y="468.5" width="60" height="30" as="geometry" />
        </mxCell>
        <mxCell id="WIyWlLk6GJQsqaUBKTNV-3" value="Inicio" style="rounded=1;whiteSpace=wrap;html=1;fontSize=12;glass=0;strokeWidth=1;shadow=0;" parent="WIyWlLk6GJQsqaUBKTNV-1" vertex="1">
          <mxGeometry x="155" y="110" width="120" height="40" as="geometry" />
        </mxCell>
        <mxCell id="0GZozUYQBZrEff4Y3Oea-23" value="" style="edgeStyle=orthogonalEdgeStyle;rounded=0;orthogonalLoop=1;jettySize=auto;html=1;endArrow=none;" parent="WIyWlLk6GJQsqaUBKTNV-1" source="0GZozUYQBZrEff4Y3Oea-2" target="WIyWlLk6GJQsqaUBKTNV-3" edge="1">
          <mxGeometry relative="1" as="geometry">
            <mxPoint x="320" y="130" as="sourcePoint" />
            <mxPoint x="220" y="240" as="targetPoint" />
            <Array as="points" />
          </mxGeometry>
        </mxCell>
        <mxCell id="0GZozUYQBZrEff4Y3Oea-33" value="" style="edgeStyle=orthogonalEdgeStyle;rounded=0;orthogonalLoop=1;jettySize=auto;html=1;" parent="WIyWlLk6GJQsqaUBKTNV-1" source="0GZozUYQBZrEff4Y3Oea-27" target="0GZozUYQBZrEff4Y3Oea-32" edge="1">
          <mxGeometry relative="1" as="geometry" />
        </mxCell>
        <mxCell id="0GZozUYQBZrEff4Y3Oea-27" value="Poner el valor introducido en la variable horas" style="shape=parallelogram;perimeter=parallelogramPerimeter;whiteSpace=wrap;html=1;fixedSize=1;" parent="WIyWlLk6GJQsqaUBKTNV-1" vertex="1">
          <mxGeometry x="640" y="477" width="120" height="60" as="geometry" />
        </mxCell>
        <mxCell id="0GZozUYQBZrEff4Y3Oea-31" value="" style="edgeStyle=orthogonalEdgeStyle;rounded=0;orthogonalLoop=1;jettySize=auto;html=1;" parent="WIyWlLk6GJQsqaUBKTNV-1" source="0GZozUYQBZrEff4Y3Oea-28" target="0GZozUYQBZrEff4Y3Oea-27" edge="1">
          <mxGeometry relative="1" as="geometry" />
        </mxCell>
        <mxCell id="0GZozUYQBZrEff4Y3Oea-28" value="Escribir &quot;Número de horas trabajadas&quot;" style="shape=parallelogram;perimeter=parallelogramPerimeter;whiteSpace=wrap;html=1;fixedSize=1;" parent="WIyWlLk6GJQsqaUBKTNV-1" vertex="1">
          <mxGeometry x="495" y="477" width="120" height="60" as="geometry" />
        </mxCell>
        <mxCell id="0GZozUYQBZrEff4Y3Oea-30" value="Verdadero" style="text;html=1;strokeColor=none;fillColor=none;align=center;verticalAlign=middle;whiteSpace=wrap;rounded=0;" parent="WIyWlLk6GJQsqaUBKTNV-1" vertex="1">
          <mxGeometry x="279" y="477" width="60" height="30" as="geometry" />
        </mxCell>
        <mxCell id="0GZozUYQBZrEff4Y3Oea-35" value="" style="edgeStyle=orthogonalEdgeStyle;rounded=0;orthogonalLoop=1;jettySize=auto;html=1;" parent="WIyWlLk6GJQsqaUBKTNV-1" source="0GZozUYQBZrEff4Y3Oea-32" target="0GZozUYQBZrEff4Y3Oea-34" edge="1">
          <mxGeometry relative="1" as="geometry" />
        </mxCell>
        <mxCell id="0GZozUYQBZrEff4Y3Oea-32" value="Escribir &quot;Número de hijos&quot;" style="shape=parallelogram;perimeter=parallelogramPerimeter;whiteSpace=wrap;html=1;fixedSize=1;" parent="WIyWlLk6GJQsqaUBKTNV-1" vertex="1">
          <mxGeometry x="780" y="477" width="140" height="60" as="geometry" />
        </mxCell>
        <mxCell id="0GZozUYQBZrEff4Y3Oea-37" value="" style="edgeStyle=orthogonalEdgeStyle;rounded=0;orthogonalLoop=1;jettySize=auto;html=1;" parent="WIyWlLk6GJQsqaUBKTNV-1" source="0GZozUYQBZrEff4Y3Oea-34" target="0GZozUYQBZrEff4Y3Oea-36" edge="1">
          <mxGeometry relative="1" as="geometry" />
        </mxCell>
        <mxCell id="0GZozUYQBZrEff4Y3Oea-34" value="Poner el valor introducido en la variable hijos" style="shape=parallelogram;perimeter=parallelogramPerimeter;whiteSpace=wrap;html=1;fixedSize=1;" parent="WIyWlLk6GJQsqaUBKTNV-1" vertex="1">
          <mxGeometry x="790" y="585" width="120" height="60" as="geometry" />
        </mxCell>
        <mxCell id="0GZozUYQBZrEff4Y3Oea-39" value="" style="edgeStyle=orthogonalEdgeStyle;rounded=0;orthogonalLoop=1;jettySize=auto;html=1;" parent="WIyWlLk6GJQsqaUBKTNV-1" source="0GZozUYQBZrEff4Y3Oea-36" target="0GZozUYQBZrEff4Y3Oea-38" edge="1">
          <mxGeometry relative="1" as="geometry" />
        </mxCell>
        <mxCell id="0GZozUYQBZrEff4Y3Oea-36" value="¿Es el valor horas mayor que 180?" style="rhombus;whiteSpace=wrap;html=1;" parent="WIyWlLk6GJQsqaUBKTNV-1" vertex="1">
          <mxGeometry x="490" y="567.5" width="90" height="95" as="geometry" />
        </mxCell>
        <mxCell id="0GZozUYQBZrEff4Y3Oea-46" value="" style="edgeStyle=orthogonalEdgeStyle;rounded=0;orthogonalLoop=1;jettySize=auto;html=1;entryX=0;entryY=0.5;entryDx=0;entryDy=0;" parent="WIyWlLk6GJQsqaUBKTNV-1" source="0GZozUYQBZrEff4Y3Oea-38" target="0GZozUYQBZrEff4Y3Oea-40" edge="1">
          <mxGeometry relative="1" as="geometry">
            <mxPoint x="362.5" y="755" as="targetPoint" />
            <Array as="points">
              <mxPoint x="363" y="760" />
            </Array>
          </mxGeometry>
        </mxCell>
        <mxCell id="0GZozUYQBZrEff4Y3Oea-38" value="Calcular el número de horas que superan 180 y restarlas al valor de horas" style="rounded=0;whiteSpace=wrap;html=1;" parent="WIyWlLk6GJQsqaUBKTNV-1" vertex="1">
          <mxGeometry x="302.5" y="585" width="120" height="60" as="geometry" />
        </mxCell>
        <mxCell id="ArMYMaqeuRzm3sMhU9Xn-1" value="" style="edgeStyle=orthogonalEdgeStyle;rounded=0;orthogonalLoop=1;jettySize=auto;html=1;" parent="WIyWlLk6GJQsqaUBKTNV-1" source="0GZozUYQBZrEff4Y3Oea-40" target="ArMYMaqeuRzm3sMhU9Xn-0" edge="1">
          <mxGeometry relative="1" as="geometry" />
        </mxCell>
        <mxCell id="ArMYMaqeuRzm3sMhU9Xn-9" value="" style="edgeStyle=orthogonalEdgeStyle;rounded=0;orthogonalLoop=1;jettySize=auto;html=1;startArrow=none;" parent="WIyWlLk6GJQsqaUBKTNV-1" source="zI6MYJNI-ue4gvD-m8sY-1" target="ArMYMaqeuRzm3sMhU9Xn-6" edge="1">
          <mxGeometry relative="1" as="geometry" />
        </mxCell>
        <mxCell id="0GZozUYQBZrEff4Y3Oea-40" value="¿Es el valor de horas mayor que 169?&amp;nbsp;" style="rhombus;whiteSpace=wrap;html=1;" parent="WIyWlLk6GJQsqaUBKTNV-1" vertex="1">
          <mxGeometry x="482.5" y="710" width="105" height="100" as="geometry" />
        </mxCell>
        <mxCell id="0GZozUYQBZrEff4Y3Oea-48" value="" style="edgeStyle=orthogonalEdgeStyle;rounded=0;orthogonalLoop=1;jettySize=auto;html=1;" parent="WIyWlLk6GJQsqaUBKTNV-1" source="0GZozUYQBZrEff4Y3Oea-47" target="0GZozUYQBZrEff4Y3Oea-40" edge="1">
          <mxGeometry relative="1" as="geometry" />
        </mxCell>
        <mxCell id="0GZozUYQBZrEff4Y3Oea-47" value="" style="ellipse;whiteSpace=wrap;html=1;aspect=fixed;" parent="WIyWlLk6GJQsqaUBKTNV-1" vertex="1">
          <mxGeometry x="530" y="662.5" width="10" height="10" as="geometry" />
        </mxCell>
        <mxCell id="0GZozUYQBZrEff4Y3Oea-49" value="Falso" style="text;html=1;strokeColor=none;fillColor=none;align=center;verticalAlign=middle;whiteSpace=wrap;rounded=0;" parent="WIyWlLk6GJQsqaUBKTNV-1" vertex="1">
          <mxGeometry x="530" y="652.5" width="60" height="30" as="geometry" />
        </mxCell>
        <mxCell id="0GZozUYQBZrEff4Y3Oea-50" value="Verdadero" style="text;html=1;strokeColor=none;fillColor=none;align=center;verticalAlign=middle;whiteSpace=wrap;rounded=0;" parent="WIyWlLk6GJQsqaUBKTNV-1" vertex="1">
          <mxGeometry x="430" y="585" width="60" height="30" as="geometry" />
        </mxCell>
        <mxCell id="ArMYMaqeuRzm3sMhU9Xn-0" value="Calcular el número de horas que superan 180 y restarlas al valor de horas" style="rounded=0;whiteSpace=wrap;html=1;" parent="WIyWlLk6GJQsqaUBKTNV-1" vertex="1">
          <mxGeometry x="650" y="730" width="120" height="60" as="geometry" />
        </mxCell>
        <mxCell id="ArMYMaqeuRzm3sMhU9Xn-5" value="" style="edgeStyle=orthogonalEdgeStyle;rounded=0;orthogonalLoop=1;jettySize=auto;html=1;" parent="WIyWlLk6GJQsqaUBKTNV-1" source="ArMYMaqeuRzm3sMhU9Xn-3" target="0GZozUYQBZrEff4Y3Oea-28" edge="1">
          <mxGeometry relative="1" as="geometry" />
        </mxCell>
        <mxCell id="ArMYMaqeuRzm3sMhU9Xn-3" value="Asignarle el valor de puesto a su correspondiente string en la variable estado" style="rounded=0;whiteSpace=wrap;html=1;" parent="WIyWlLk6GJQsqaUBKTNV-1" vertex="1">
          <mxGeometry x="339" y="472" width="136" height="70" as="geometry" />
        </mxCell>
        <mxCell id="ArMYMaqeuRzm3sMhU9Xn-12" value="" style="edgeStyle=orthogonalEdgeStyle;rounded=0;orthogonalLoop=1;jettySize=auto;html=1;" parent="WIyWlLk6GJQsqaUBKTNV-1" source="ArMYMaqeuRzm3sMhU9Xn-6" target="ArMYMaqeuRzm3sMhU9Xn-11" edge="1">
          <mxGeometry relative="1" as="geometry" />
        </mxCell>
        <mxCell id="ArMYMaqeuRzm3sMhU9Xn-6" value="Calcular bruto multiplicando la tarifa correspondiente al tipo de hora por el número de horas" style="rounded=0;whiteSpace=wrap;html=1;" parent="WIyWlLk6GJQsqaUBKTNV-1" vertex="1">
          <mxGeometry x="452.5" y="870" width="165" height="60" as="geometry" />
        </mxCell>
        <mxCell id="ArMYMaqeuRzm3sMhU9Xn-7" value="Verdadero" style="text;html=1;strokeColor=none;fillColor=none;align=center;verticalAlign=middle;whiteSpace=wrap;rounded=0;" parent="WIyWlLk6GJQsqaUBKTNV-1" vertex="1">
          <mxGeometry x="587.5" y="730" width="60" height="30" as="geometry" />
        </mxCell>
        <mxCell id="ArMYMaqeuRzm3sMhU9Xn-8" value="Falso" style="text;html=1;strokeColor=none;fillColor=none;align=center;verticalAlign=middle;whiteSpace=wrap;rounded=0;" parent="WIyWlLk6GJQsqaUBKTNV-1" vertex="1">
          <mxGeometry x="525" y="810" width="60" height="30" as="geometry" />
        </mxCell>
        <mxCell id="ArMYMaqeuRzm3sMhU9Xn-14" value="" style="edgeStyle=orthogonalEdgeStyle;rounded=0;orthogonalLoop=1;jettySize=auto;html=1;" parent="WIyWlLk6GJQsqaUBKTNV-1" source="ArMYMaqeuRzm3sMhU9Xn-11" target="ArMYMaqeuRzm3sMhU9Xn-13" edge="1">
          <mxGeometry relative="1" as="geometry" />
        </mxCell>
        <mxCell id="ArMYMaqeuRzm3sMhU9Xn-11" value="Escribir &quot;Nómina de &quot; y el nombre apellido, y salario bruto" style="shape=parallelogram;perimeter=parallelogramPerimeter;whiteSpace=wrap;html=1;fixedSize=1;" parent="WIyWlLk6GJQsqaUBKTNV-1" vertex="1">
          <mxGeometry x="660" y="870" width="140" height="60" as="geometry" />
        </mxCell>
        <mxCell id="ArMYMaqeuRzm3sMhU9Xn-16" value="" style="edgeStyle=orthogonalEdgeStyle;rounded=0;orthogonalLoop=1;jettySize=auto;html=1;" parent="WIyWlLk6GJQsqaUBKTNV-1" source="ArMYMaqeuRzm3sMhU9Xn-13" target="ArMYMaqeuRzm3sMhU9Xn-15" edge="1">
          <mxGeometry relative="1" as="geometry" />
        </mxCell>
        <mxCell id="ArMYMaqeuRzm3sMhU9Xn-13" value="Calcular las deducciones" style="rounded=0;whiteSpace=wrap;html=1;" parent="WIyWlLk6GJQsqaUBKTNV-1" vertex="1">
          <mxGeometry x="670" y="990" width="120" height="60" as="geometry" />
        </mxCell>
        <mxCell id="ArMYMaqeuRzm3sMhU9Xn-19" value="" style="edgeStyle=orthogonalEdgeStyle;rounded=0;orthogonalLoop=1;jettySize=auto;html=1;" parent="WIyWlLk6GJQsqaUBKTNV-1" source="ArMYMaqeuRzm3sMhU9Xn-15" target="ArMYMaqeuRzm3sMhU9Xn-18" edge="1">
          <mxGeometry relative="1" as="geometry" />
        </mxCell>
        <mxCell id="ArMYMaqeuRzm3sMhU9Xn-15" value="Escribir el nombre de la deducción y su valor" style="shape=parallelogram;perimeter=parallelogramPerimeter;whiteSpace=wrap;html=1;fixedSize=1;" parent="WIyWlLk6GJQsqaUBKTNV-1" vertex="1">
          <mxGeometry x="482.5" y="990" width="120" height="60" as="geometry" />
        </mxCell>
        <mxCell id="ArMYMaqeuRzm3sMhU9Xn-26" value="" style="edgeStyle=orthogonalEdgeStyle;rounded=0;orthogonalLoop=1;jettySize=auto;html=1;startArrow=none;" parent="WIyWlLk6GJQsqaUBKTNV-1" source="ArMYMaqeuRzm3sMhU9Xn-62" target="ArMYMaqeuRzm3sMhU9Xn-23" edge="1">
          <mxGeometry relative="1" as="geometry" />
        </mxCell>
        <mxCell id="ArMYMaqeuRzm3sMhU9Xn-27" value="" style="edgeStyle=orthogonalEdgeStyle;rounded=0;orthogonalLoop=1;jettySize=auto;html=1;" parent="WIyWlLk6GJQsqaUBKTNV-1" source="ArMYMaqeuRzm3sMhU9Xn-17" target="ArMYMaqeuRzm3sMhU9Xn-22" edge="1">
          <mxGeometry relative="1" as="geometry" />
        </mxCell>
        <mxCell id="ArMYMaqeuRzm3sMhU9Xn-17" value="¿Es el número de hijos igual a 1?" style="rhombus;whiteSpace=wrap;html=1;" parent="WIyWlLk6GJQsqaUBKTNV-1" vertex="1">
          <mxGeometry x="340" y="1180" width="80" height="80" as="geometry" />
        </mxCell>
        <mxCell id="ArMYMaqeuRzm3sMhU9Xn-21" value="" style="edgeStyle=orthogonalEdgeStyle;rounded=0;orthogonalLoop=1;jettySize=auto;html=1;" parent="WIyWlLk6GJQsqaUBKTNV-1" source="ArMYMaqeuRzm3sMhU9Xn-18" target="ArMYMaqeuRzm3sMhU9Xn-20" edge="1">
          <mxGeometry relative="1" as="geometry" />
        </mxCell>
        <mxCell id="ArMYMaqeuRzm3sMhU9Xn-18" value="Calcular el salario neto restando al bruto las deducciones" style="rounded=0;whiteSpace=wrap;html=1;" parent="WIyWlLk6GJQsqaUBKTNV-1" vertex="1">
          <mxGeometry x="482.5" y="1090" width="120" height="60" as="geometry" />
        </mxCell>
        <mxCell id="ArMYMaqeuRzm3sMhU9Xn-25" value="" style="edgeStyle=orthogonalEdgeStyle;rounded=0;orthogonalLoop=1;jettySize=auto;html=1;" parent="WIyWlLk6GJQsqaUBKTNV-1" source="ArMYMaqeuRzm3sMhU9Xn-20" target="ArMYMaqeuRzm3sMhU9Xn-17" edge="1">
          <mxGeometry relative="1" as="geometry" />
        </mxCell>
        <mxCell id="ArMYMaqeuRzm3sMhU9Xn-20" value="Inicializar el valor de primaFamiliar a 0" style="rounded=0;whiteSpace=wrap;html=1;" parent="WIyWlLk6GJQsqaUBKTNV-1" vertex="1">
          <mxGeometry x="320" y="1090" width="120" height="60" as="geometry" />
        </mxCell>
        <mxCell id="ArMYMaqeuRzm3sMhU9Xn-54" value="" style="edgeStyle=orthogonalEdgeStyle;rounded=0;orthogonalLoop=1;jettySize=auto;html=1;entryX=0;entryY=0.5;entryDx=0;entryDy=0;" parent="WIyWlLk6GJQsqaUBKTNV-1" source="ArMYMaqeuRzm3sMhU9Xn-22" target="ArMYMaqeuRzm3sMhU9Xn-35" edge="1">
          <mxGeometry relative="1" as="geometry">
            <mxPoint x="740" y="1330" as="targetPoint" />
            <Array as="points">
              <mxPoint x="710" y="1220" />
              <mxPoint x="710" y="1385" />
            </Array>
          </mxGeometry>
        </mxCell>
        <mxCell id="ArMYMaqeuRzm3sMhU9Xn-22" value="Asignarle 20 al valor al primaFamiliar" style="rounded=0;whiteSpace=wrap;html=1;" parent="WIyWlLk6GJQsqaUBKTNV-1" vertex="1">
          <mxGeometry x="480" y="1190" width="120" height="60" as="geometry" />
        </mxCell>
        <mxCell id="ArMYMaqeuRzm3sMhU9Xn-28" value="" style="edgeStyle=orthogonalEdgeStyle;rounded=0;orthogonalLoop=1;jettySize=auto;html=1;" parent="WIyWlLk6GJQsqaUBKTNV-1" source="ArMYMaqeuRzm3sMhU9Xn-23" target="ArMYMaqeuRzm3sMhU9Xn-24" edge="1">
          <mxGeometry relative="1" as="geometry" />
        </mxCell>
        <mxCell id="ArMYMaqeuRzm3sMhU9Xn-31" value="" style="edgeStyle=orthogonalEdgeStyle;rounded=0;orthogonalLoop=1;jettySize=auto;html=1;" parent="WIyWlLk6GJQsqaUBKTNV-1" source="ArMYMaqeuRzm3sMhU9Xn-23" target="ArMYMaqeuRzm3sMhU9Xn-29" edge="1">
          <mxGeometry relative="1" as="geometry" />
        </mxCell>
        <mxCell id="ArMYMaqeuRzm3sMhU9Xn-23" value="¿Es el valor de hijos igual 2?" style="rhombus;whiteSpace=wrap;html=1;" parent="WIyWlLk6GJQsqaUBKTNV-1" vertex="1">
          <mxGeometry x="340" y="1290" width="80" height="80" as="geometry" />
        </mxCell>
        <mxCell id="ArMYMaqeuRzm3sMhU9Xn-38" value="" style="edgeStyle=orthogonalEdgeStyle;rounded=0;orthogonalLoop=1;jettySize=auto;html=1;" parent="WIyWlLk6GJQsqaUBKTNV-1" source="ArMYMaqeuRzm3sMhU9Xn-24" target="ArMYMaqeuRzm3sMhU9Xn-35" edge="1">
          <mxGeometry relative="1" as="geometry" />
        </mxCell>
        <mxCell id="ArMYMaqeuRzm3sMhU9Xn-24" value="Asignarle 50 al valor al primaFamiliar" style="rounded=0;whiteSpace=wrap;html=1;" parent="WIyWlLk6GJQsqaUBKTNV-1" vertex="1">
          <mxGeometry x="480" y="1300" width="120" height="60" as="geometry" />
        </mxCell>
        <mxCell id="ArMYMaqeuRzm3sMhU9Xn-32" value="" style="edgeStyle=orthogonalEdgeStyle;rounded=0;orthogonalLoop=1;jettySize=auto;html=1;" parent="WIyWlLk6GJQsqaUBKTNV-1" source="ArMYMaqeuRzm3sMhU9Xn-29" target="ArMYMaqeuRzm3sMhU9Xn-30" edge="1">
          <mxGeometry relative="1" as="geometry" />
        </mxCell>
        <mxCell id="ArMYMaqeuRzm3sMhU9Xn-58" value="" style="edgeStyle=orthogonalEdgeStyle;rounded=0;orthogonalLoop=1;jettySize=auto;html=1;entryX=0;entryY=0.5;entryDx=0;entryDy=0;startArrow=none;" parent="WIyWlLk6GJQsqaUBKTNV-1" source="ArMYMaqeuRzm3sMhU9Xn-64" target="ArMYMaqeuRzm3sMhU9Xn-35" edge="1">
          <mxGeometry relative="1" as="geometry">
            <mxPoint x="820" y="1330" as="targetPoint" />
            <Array as="points">
              <mxPoint x="380" y="1560" />
              <mxPoint x="710" y="1560" />
              <mxPoint x="710" y="1385" />
            </Array>
          </mxGeometry>
        </mxCell>
        <mxCell id="ArMYMaqeuRzm3sMhU9Xn-29" value="¿Es el valor de hijos mayor que 2?" style="rhombus;whiteSpace=wrap;html=1;" parent="WIyWlLk6GJQsqaUBKTNV-1" vertex="1">
          <mxGeometry x="335" y="1400" width="90" height="90" as="geometry" />
        </mxCell>
        <mxCell id="ArMYMaqeuRzm3sMhU9Xn-56" value="" style="edgeStyle=orthogonalEdgeStyle;rounded=0;orthogonalLoop=1;jettySize=auto;html=1;entryX=0;entryY=0.5;entryDx=0;entryDy=0;" parent="WIyWlLk6GJQsqaUBKTNV-1" source="ArMYMaqeuRzm3sMhU9Xn-30" target="ArMYMaqeuRzm3sMhU9Xn-35" edge="1">
          <mxGeometry relative="1" as="geometry">
            <mxPoint x="742.5" y="1445" as="targetPoint" />
            <Array as="points">
              <mxPoint x="710" y="1445" />
              <mxPoint x="710" y="1385" />
            </Array>
          </mxGeometry>
        </mxCell>
        <mxCell id="ArMYMaqeuRzm3sMhU9Xn-30" value="Calcular el valor de primaFamiliar sumando 70 y 20 por cada hijo adicional&amp;nbsp;" style="rounded=0;whiteSpace=wrap;html=1;" parent="WIyWlLk6GJQsqaUBKTNV-1" vertex="1">
          <mxGeometry x="482.5" y="1415" width="120" height="60" as="geometry" />
        </mxCell>
        <mxCell id="ArMYMaqeuRzm3sMhU9Xn-33" value="Falso" style="text;html=1;strokeColor=none;fillColor=none;align=center;verticalAlign=middle;whiteSpace=wrap;rounded=0;" parent="WIyWlLk6GJQsqaUBKTNV-1" vertex="1">
          <mxGeometry x="377" y="1370" width="60" height="30" as="geometry" />
        </mxCell>
        <mxCell id="ArMYMaqeuRzm3sMhU9Xn-34" value="Falso" style="text;html=1;strokeColor=none;fillColor=none;align=center;verticalAlign=middle;whiteSpace=wrap;rounded=0;" parent="WIyWlLk6GJQsqaUBKTNV-1" vertex="1">
          <mxGeometry x="384" y="1260" width="60" height="30" as="geometry" />
        </mxCell>
        <mxCell id="ArMYMaqeuRzm3sMhU9Xn-59" value="" style="edgeStyle=orthogonalEdgeStyle;rounded=0;orthogonalLoop=1;jettySize=auto;html=1;" parent="WIyWlLk6GJQsqaUBKTNV-1" source="ArMYMaqeuRzm3sMhU9Xn-35" target="ArMYMaqeuRzm3sMhU9Xn-36" edge="1">
          <mxGeometry relative="1" as="geometry" />
        </mxCell>
        <mxCell id="ArMYMaqeuRzm3sMhU9Xn-35" value="Calcular neto a pagar sumando el valor de prima familiar a neto" style="rounded=0;whiteSpace=wrap;html=1;" parent="WIyWlLk6GJQsqaUBKTNV-1" vertex="1">
          <mxGeometry x="820" y="1355" width="120" height="60" as="geometry" />
        </mxCell>
        <mxCell id="ArMYMaqeuRzm3sMhU9Xn-52" value="" style="edgeStyle=orthogonalEdgeStyle;rounded=0;orthogonalLoop=1;jettySize=auto;html=1;" parent="WIyWlLk6GJQsqaUBKTNV-1" source="ArMYMaqeuRzm3sMhU9Xn-36" target="ArMYMaqeuRzm3sMhU9Xn-51" edge="1">
          <mxGeometry relative="1" as="geometry" />
        </mxCell>
        <mxCell id="ArMYMaqeuRzm3sMhU9Xn-36" value="Escribir &quot;Salario neto a pagar &quot; y el valor" style="shape=parallelogram;perimeter=parallelogramPerimeter;whiteSpace=wrap;html=1;fixedSize=1;" parent="WIyWlLk6GJQsqaUBKTNV-1" vertex="1">
          <mxGeometry x="810" y="1500" width="140" height="60" as="geometry" />
        </mxCell>
        <mxCell id="ArMYMaqeuRzm3sMhU9Xn-40" value="Verdadero" style="text;html=1;strokeColor=none;fillColor=none;align=center;verticalAlign=middle;whiteSpace=wrap;rounded=0;" parent="WIyWlLk6GJQsqaUBKTNV-1" vertex="1">
          <mxGeometry x="414" y="1190" width="60" height="30" as="geometry" />
        </mxCell>
        <mxCell id="ArMYMaqeuRzm3sMhU9Xn-41" value="Verdadero" style="text;html=1;strokeColor=none;fillColor=none;align=center;verticalAlign=middle;whiteSpace=wrap;rounded=0;" parent="WIyWlLk6GJQsqaUBKTNV-1" vertex="1">
          <mxGeometry x="415" y="1300" width="60" height="30" as="geometry" />
        </mxCell>
        <mxCell id="ArMYMaqeuRzm3sMhU9Xn-42" value="Verdadero" style="text;html=1;strokeColor=none;fillColor=none;align=center;verticalAlign=middle;whiteSpace=wrap;rounded=0;" parent="WIyWlLk6GJQsqaUBKTNV-1" vertex="1">
          <mxGeometry x="422.5" y="1415" width="60" height="30" as="geometry" />
        </mxCell>
        <mxCell id="ArMYMaqeuRzm3sMhU9Xn-49" value="Falso" style="text;html=1;strokeColor=none;fillColor=none;align=center;verticalAlign=middle;whiteSpace=wrap;rounded=0;" parent="WIyWlLk6GJQsqaUBKTNV-1" vertex="1">
          <mxGeometry x="370" y="1500" width="60" height="30" as="geometry" />
        </mxCell>
        <mxCell id="ArMYMaqeuRzm3sMhU9Xn-51" value="Fin" style="rounded=1;whiteSpace=wrap;html=1;" parent="WIyWlLk6GJQsqaUBKTNV-1" vertex="1">
          <mxGeometry x="820" y="1630" width="120" height="60" as="geometry" />
        </mxCell>
        <mxCell id="ArMYMaqeuRzm3sMhU9Xn-60" style="edgeStyle=orthogonalEdgeStyle;rounded=0;orthogonalLoop=1;jettySize=auto;html=1;exitX=0.5;exitY=1;exitDx=0;exitDy=0;" parent="WIyWlLk6GJQsqaUBKTNV-1" source="ArMYMaqeuRzm3sMhU9Xn-49" target="ArMYMaqeuRzm3sMhU9Xn-49" edge="1">
          <mxGeometry relative="1" as="geometry" />
        </mxCell>
        <mxCell id="ArMYMaqeuRzm3sMhU9Xn-61" value="" style="ellipse;whiteSpace=wrap;html=1;aspect=fixed;" parent="WIyWlLk6GJQsqaUBKTNV-1" vertex="1">
          <mxGeometry x="375" y="1370" width="10" height="10" as="geometry" />
        </mxCell>
        <mxCell id="ArMYMaqeuRzm3sMhU9Xn-62" value="" style="ellipse;whiteSpace=wrap;html=1;aspect=fixed;" parent="WIyWlLk6GJQsqaUBKTNV-1" vertex="1">
          <mxGeometry x="375" y="1260" width="10" height="10" as="geometry" />
        </mxCell>
        <mxCell id="ArMYMaqeuRzm3sMhU9Xn-63" value="" style="edgeStyle=orthogonalEdgeStyle;rounded=0;orthogonalLoop=1;jettySize=auto;html=1;endArrow=none;" parent="WIyWlLk6GJQsqaUBKTNV-1" source="ArMYMaqeuRzm3sMhU9Xn-17" target="ArMYMaqeuRzm3sMhU9Xn-62" edge="1">
          <mxGeometry relative="1" as="geometry">
            <mxPoint x="380" y="1260" as="sourcePoint" />
            <mxPoint x="380" y="1290" as="targetPoint" />
            <Array as="points">
              <mxPoint x="380" y="1265" />
              <mxPoint x="380" y="1265" />
            </Array>
          </mxGeometry>
        </mxCell>
        <mxCell id="ArMYMaqeuRzm3sMhU9Xn-64" value="" style="ellipse;whiteSpace=wrap;html=1;aspect=fixed;" parent="WIyWlLk6GJQsqaUBKTNV-1" vertex="1">
          <mxGeometry x="375" y="1490" width="10" height="10" as="geometry" />
        </mxCell>
        <mxCell id="zI6MYJNI-ue4gvD-m8sY-1" value="" style="ellipse;whiteSpace=wrap;html=1;aspect=fixed;" vertex="1" parent="WIyWlLk6GJQsqaUBKTNV-1">
          <mxGeometry x="530" y="810" width="10" height="10" as="geometry" />
        </mxCell>
        <mxCell id="zI6MYJNI-ue4gvD-m8sY-2" value="" style="edgeStyle=orthogonalEdgeStyle;rounded=0;orthogonalLoop=1;jettySize=auto;html=1;endArrow=none;" edge="1" parent="WIyWlLk6GJQsqaUBKTNV-1" source="0GZozUYQBZrEff4Y3Oea-40" target="zI6MYJNI-ue4gvD-m8sY-1">
          <mxGeometry relative="1" as="geometry">
            <mxPoint x="535" y="810" as="sourcePoint" />
            <mxPoint x="535" y="870" as="targetPoint" />
            <Array as="points">
              <mxPoint x="535" y="820" />
              <mxPoint x="535" y="820" />
            </Array>
          </mxGeometry>
        </mxCell>
      </root>
    </mxGraphModel>
  </diagram>
</mxfile>
